{
	"asset":{
		"version":"2.0",
		"generator":"Houdini GLTF 2.0 Exporter"
	},
	"accessors":[
		{
			"bufferView":0,
			"componentType":5125,
			"count":350628,
			"type":"SCALAR",
			"min":[0
			],
			"max":[57217
			]
		},
		{
			"bufferView":1,
			"componentType":5126,
			"count":57218,
			"type":"VEC3",
			"min":[-0.962860703,-1.01395094,-1.01063275
			],
			"max":[1.00826192,1.01395488,1.01063263
			]
		},
		{
			"bufferView":2,
			"componentType":5125,
			"count":57218,
			"type":"SCALAR",
			"min":[-1
			],
			"max":[-1
			]
		},
		{
			"bufferView":3,
			"componentType":5126,
			"count":57218,
			"type":"VEC3",
			"min":[-0.999999642,-0.999999404,-0.999910176
			],
			"max":[0.9999879,0.999999642,0.999910235
			]
		},
		{
			"bufferView":4,
			"componentType":5125,
			"count":277278,
			"type":"SCALAR",
			"min":[0
			],
			"max":[45489
			]
		},
		{
			"bufferView":5,
			"componentType":5126,
			"count":45490,
			"type":"VEC3",
			"min":[-3.48631835,-3.73789787,-3.68294787
			],
			"max":[3.73599052,3.72058392,3.57132101
			]
		},
		{
			"bufferView":6,
			"componentType":5126,
			"count":45490,
			"type":"SCALAR",
			"min":[0.0623430051
			],
			"max":[4.28412056
			]
		},
		{
			"bufferView":7,
			"componentType":5126,
			"count":45490,
			"type":"VEC3",
			"min":[-0.999973834,-0.999986053,-0.999994993
			],
			"max":[0.999976754,0.999986172,0.999998212
			]
		}
	],
	"buffers":[
		{
			"uri":"houdini-sphere_data.bin",
			"byteLength":5387448,
			"name":"main_buffer"
		}
	],
	"bufferViews":[
		{
			"buffer":0,
			"byteLength":1402512,
			"target":34963
		},
		{
			"buffer":0,
			"byteOffset":1402512,
			"byteLength":686616,
			"target":34962
		},
		{
			"buffer":0,
			"byteOffset":2089128,
			"byteLength":228872,
			"target":34962
		},
		{
			"buffer":0,
			"byteOffset":2318000,
			"byteLength":686616,
			"target":34962
		},
		{
			"buffer":0,
			"byteOffset":3004616,
			"byteLength":1109112,
			"target":34963
		},
		{
			"buffer":0,
			"byteOffset":4113728,
			"byteLength":545880,
			"target":34962
		},
		{
			"buffer":0,
			"byteOffset":4659608,
			"byteLength":181960,
			"target":34962
		},
		{
			"buffer":0,
			"byteOffset":4841568,
			"byteLength":545880,
			"target":34962
		}
	],
	"nodes":[
		{
			"children":[1,2
			],
			"name":"Root"
		},
		{
			"name":"sphere",
			"mesh":0
		},
		{
			"name":"spikes",
			"mesh":1
		}
	],
	"meshes":[
		{
			"primitives":[
				{
					"attributes":{
						"NORMAL":3,
						"_interpolation":2,
						"POSITION":1
					},
					"indices":0
				}
			],
			"name":"wireMesh"
		},
		{
			"primitives":[
				{
					"attributes":{
						"NORMAL":7,
						"_interpolation":6,
						"POSITION":5
					},
					"indices":4
				}
			],
			"name":"out"
		}
	],
	"scenes":[
		{
			"nodes":[0
			]
		}
	],
	"scene":0
}
