{
	"asset":{
		"version":"2.0",
		"generator":"Houdini GLTF 2.0 Exporter"
	},
	"accessors":[
		{
			"bufferView":0,
			"componentType":5125,
			"count":264339,
			"type":"SCALAR",
			"min":[0
			],
			"max":[88112
			]
		},
		{
			"bufferView":1,
			"componentType":5126,
			"count":88113,
			"type":"VEC3",
			"min":[-5.09162569,-4.96658993,-5.70165491
			],
			"max":[6.0763073,5.01278734,3.4855206
			]
		},
		{
			"bufferView":2,
			"componentType":5126,
			"count":88113,
			"type":"VEC3",
			"min":[-0.981101215,-0.986010075,-0.996183217
			],
			"max":[0.992981672,0.992215276,0.992183447
			]
		},
		{
			"bufferView":3,
			"componentType":5126,
			"count":88113,
			"type":"SCALAR",
			"min":[0.356505334
			],
			"max":[6.57570457
			]
		},
		{
			"bufferView":4,
			"componentType":5125,
			"count":692112,
			"type":"SCALAR",
			"min":[0
			],
			"max":[114130
			]
		},
		{
			"bufferView":5,
			"componentType":5126,
			"count":114131,
			"type":"VEC3",
			"min":[-0.959789932,-1.015661,-1.01067781
			],
			"max":[1.01152956,1.01617193,1.0099647
			]
		},
		{
			"bufferView":6,
			"componentType":5125,
			"count":114131,
			"type":"SCALAR",
			"min":[-1
			],
			"max":[-1
			]
		}
	],
	"buffers":[
		{
			"uri":"HoudiniSphere4_data.bin",
			"byteLength":8119064,
			"name":"main_buffer"
		}
	],
	"bufferViews":[
		{
			"buffer":0,
			"byteLength":1057356,
			"target":34963
		},
		{
			"buffer":0,
			"byteOffset":1057356,
			"byteLength":1057356,
			"target":34962
		},
		{
			"buffer":0,
			"byteOffset":2114712,
			"byteLength":1057356,
			"target":34962
		},
		{
			"buffer":0,
			"byteOffset":3172068,
			"byteLength":352452,
			"target":34962
		},
		{
			"buffer":0,
			"byteOffset":3524520,
			"byteLength":2768448,
			"target":34963
		},
		{
			"buffer":0,
			"byteOffset":6292968,
			"byteLength":1369572,
			"target":34962
		},
		{
			"buffer":0,
			"byteOffset":7662540,
			"byteLength":456524,
			"target":34962
		}
	],
	"nodes":[
		{
			"children":[1,2,3
			],
			"name":"Root"
		},
		{
			"name":"base-mesh"
		},
		{
			"name":"spikes",
			"mesh":0
		},
		{
			"name":"sphere",
			"mesh":1
		}
	],
	"meshes":[
		{
			"primitives":[
				{
					"attributes":{
						"_interpolation":3,
						"_offset":2,
						"POSITION":1
					},
					"indices":0
				}
			],
			"name":"out"
		},
		{
			"primitives":[
				{
					"attributes":{
						"_interpolation":6,
						"POSITION":5
					},
					"indices":4
				}
			],
			"name":"wireMesh"
		}
	],
	"scenes":[
		{
			"nodes":[0
			]
		}
	],
	"scene":0
}
