{
	"asset":{
		"version":"2.0",
		"generator":"Houdini GLTF 2.0 Exporter"
	},
	"accessors":[
		{
			"bufferView":0,
			"componentType":5125,
			"count":201999,
			"type":"SCALAR",
			"min":[0
			],
			"max":[67332
			]
		},
		{
			"bufferView":1,
			"componentType":5126,
			"count":67333,
			"type":"VEC3",
			"min":[-3.79578853,-3.8751936,-4.53199387
			],
			"max":[5.17512655,3.78538537,3.61784244
			]
		},
		{
			"bufferView":2,
			"componentType":5126,
			"count":67333,
			"type":"VEC3",
			"min":[-0.981101215,-0.984884918,-0.992132068
			],
			"max":[0.992981672,0.992215276,0.992183447
			]
		},
		{
			"bufferView":3,
			"componentType":5126,
			"count":67333,
			"type":"SCALAR",
			"min":[0.107436486
			],
			"max":[5.18078423
			]
		},
		{
			"bufferView":4,
			"componentType":5125,
			"count":213936,
			"type":"SCALAR",
			"min":[0
			],
			"max":[34894
			]
		},
		{
			"bufferView":5,
			"componentType":5126,
			"count":34895,
			"type":"VEC3",
			"min":[-1.00070202,-1.01470566,-0.993130922
			],
			"max":[1.00420511,1.01851249,0.996000528
			]
		},
		{
			"bufferView":6,
			"componentType":5125,
			"count":34895,
			"type":"SCALAR",
			"min":[0
			],
			"max":[0
			]
		}
	],
	"buffers":[
		{
			"uri":"HoudiniSphere5_data.bin",
			"byteLength":4107384,
			"name":"main_buffer"
		}
	],
	"bufferViews":[
		{
			"buffer":0,
			"byteLength":807996,
			"target":34963
		},
		{
			"buffer":0,
			"byteOffset":807996,
			"byteLength":807996,
			"target":34962
		},
		{
			"buffer":0,
			"byteOffset":1615992,
			"byteLength":807996,
			"target":34962
		},
		{
			"buffer":0,
			"byteOffset":2423988,
			"byteLength":269332,
			"target":34962
		},
		{
			"buffer":0,
			"byteOffset":2693320,
			"byteLength":855744,
			"target":34963
		},
		{
			"buffer":0,
			"byteOffset":3549064,
			"byteLength":418740,
			"target":34962
		},
		{
			"buffer":0,
			"byteOffset":3967804,
			"byteLength":139580,
			"target":34962
		}
	],
	"nodes":[
		{
			"children":[1,2,3
			],
			"name":"Root"
		},
		{
			"name":"base-mesh"
		},
		{
			"name":"spikes",
			"mesh":0
		},
		{
			"name":"sphere",
			"mesh":1
		}
	],
	"meshes":[
		{
			"primitives":[
				{
					"attributes":{
						"_interpolation":3,
						"_offset":2,
						"POSITION":1
					},
					"indices":0
				}
			],
			"name":"out"
		},
		{
			"primitives":[
				{
					"attributes":{
						"_interpolation":6,
						"POSITION":5
					},
					"indices":4
				}
			],
			"name":"polyreduce2"
		}
	],
	"scenes":[
		{
			"nodes":[0
			]
		}
	],
	"scene":0
}
