{
	"asset":{
		"version":"2.0",
		"generator":"Houdini GLTF 2.0 Exporter"
	},
	"accessors":[
		{
			"bufferView":0,
			"componentType":5125,
			"count":849000,
			"type":"SCALAR",
			"min":[0
			],
			"max":[141043
			]
		},
		{
			"bufferView":1,
			"componentType":5126,
			"count":141044,
			"type":"VEC3",
			"min":[-0.982319534,-1.02686214,-1.01340199
			],
			"max":[1.01605844,1.02679384,1.01380873
			]
		}
	],
	"buffers":[
		{
			"uri":"HoudiniSphere3_data.bin",
			"byteLength":5088528,
			"name":"main_buffer"
		}
	],
	"bufferViews":[
		{
			"buffer":0,
			"byteLength":3396000,
			"target":34963
		},
		{
			"buffer":0,
			"byteOffset":3396000,
			"byteLength":1692528,
			"target":34962
		}
	],
	"nodes":[
		{
			"children":[1,2,3
			],
			"name":"Root"
		},
		{
			"name":"base_meshes"
		},
		{
			"name":"spikes"
		},
		{
			"name":"sphere",
			"mesh":0
		}
	],
	"meshes":[
		{
			"primitives":[
				{
					"attributes":{
						"POSITION":1
					},
					"indices":0
				}
			],
			"name":"wireMesh"
		}
	],
	"scenes":[
		{
			"nodes":[0
			]
		}
	],
	"scene":0
}
