{
	"asset":{
		"version":"2.0",
		"generator":"Houdini GLTF 2.0 Exporter"
	},
	"accessors":[
		{
			"bufferView":0,
			"componentType":5125,
			"count":275388,
			"type":"SCALAR",
			"min":[0
			],
			"max":[76107
			]
		},
		{
			"bufferView":1,
			"componentType":5126,
			"count":76108,
			"type":"VEC3",
			"min":[-1.08099997,-1.09347498,-1.0616926
			],
			"max":[1.07289231,1.11124194,1.11588132
			]
		},
		{
			"bufferView":2,
			"componentType":5126,
			"count":76108,
			"type":"VEC3",
			"min":[-0.999970317,-0.999941707,-0.99998039
			],
			"max":[0.999966741,0.999989092,0.999999225
			]
		}
	],
	"buffers":[
		{
			"uri":"HoudiniSphereWithPoints_data.bin",
			"byteLength":2928144,
			"name":"main_buffer"
		}
	],
	"bufferViews":[
		{
			"buffer":0,
			"byteLength":1101552,
			"target":34963
		},
		{
			"buffer":0,
			"byteOffset":1101552,
			"byteLength":913296,
			"target":34962
		},
		{
			"buffer":0,
			"byteOffset":2014848,
			"byteLength":913296,
			"target":34962
		}
	],
	"nodes":[
		{
			"name":"SphereMesh",
			"mesh":0
		},
		{
			"name":"base_meshes"
		},
		{
			"name":"DnaStrands"
		},
		{
			"name":"SpherePoints"
		},
		{
			"name":"organic_meshes"
		}
	],
	"meshes":[
		{
			"primitives":[
				{
					"attributes":{
						"NORMAL":2,
						"POSITION":1
					},
					"indices":0
				}
			],
			"name":"SphereMesh"
		}
	],
	"scenes":[
		{
			"nodes":[0
			]
		}
	],
	"scene":0
}
