{
	"asset":{
		"version":"2.0",
		"generator":"Houdini GLTF 2.0 Exporter"
	},
	"accessors":[
		{
			"bufferView":0,
			"componentType":5125,
			"count":138876,
			"type":"SCALAR",
			"min":[0
			],
			"max":[46291
			]
		},
		{
			"bufferView":1,
			"componentType":5126,
			"count":46292,
			"type":"VEC3",
			"min":[-0.978793323,-1.02033067,-1.0090878
			],
			"max":[1.00957143,1.02258825,1.00774944
			]
		},
		{
			"bufferView":2,
			"componentType":5125,
			"count":46292,
			"type":"SCALAR",
			"min":[-1
			],
			"max":[-1
			]
		}
	],
	"buffers":[
		{
			"uri":"HoudiniSphereOuter_data.bin",
			"byteLength":1296176,
			"name":"main_buffer"
		}
	],
	"bufferViews":[
		{
			"buffer":0,
			"byteLength":555504,
			"target":34963
		},
		{
			"buffer":0,
			"byteOffset":555504,
			"byteLength":555504,
			"target":34962
		},
		{
			"buffer":0,
			"byteOffset":1111008,
			"byteLength":185168,
			"target":34962
		}
	],
	"nodes":[
		{
			"children":[1,2,3
			],
			"name":"Root"
		},
		{
			"name":"base-mesh"
		},
		{
			"name":"spikes"
		},
		{
			"name":"sphere",
			"mesh":0
		}
	],
	"meshes":[
		{
			"primitives":[
				{
					"mode":0,
					"attributes":{
						"_interpolation":2,
						"POSITION":1
					},
					"indices":0
				}
			],
			"name":"wireMesh"
		}
	],
	"scenes":[
		{
			"nodes":[0
			]
		}
	],
	"scene":0
}
