{
	"asset":{
		"version":"2.0",
		"generator":"Houdini GLTF 2.0 Exporter"
	},
	"accessors":[
		{
			"bufferView":0,
			"componentType":5125,
			"count":421152,
			"type":"SCALAR",
			"min":[0
			],
			"max":[69430
			]
		},
		{
			"bufferView":1,
			"componentType":5126,
			"count":69431,
			"type":"VEC3",
			"min":[-1.00008464,-1.01628208,-0.996744335
			],
			"max":[1.00366557,1.01832056,0.996485472
			]
		},
		{
			"bufferView":2,
			"componentType":5125,
			"count":69431,
			"type":"SCALAR",
			"min":[-1
			],
			"max":[-1
			]
		}
	],
	"buffers":[
		{
			"uri":"SphereDodHexSq_data.bin",
			"byteLength":2795504,
			"name":"main_buffer"
		}
	],
	"bufferViews":[
		{
			"buffer":0,
			"byteLength":1684608,
			"target":34963
		},
		{
			"buffer":0,
			"byteOffset":1684608,
			"byteLength":833172,
			"target":34962
		},
		{
			"buffer":0,
			"byteOffset":2517780,
			"byteLength":277724,
			"target":34962
		}
	],
	"nodes":[
		{
			"name":"sphere",
			"mesh":0
		},
		{
			"name":"base-mesh"
		},
		{
			"name":"spikes"
		}
	],
	"meshes":[
		{
			"primitives":[
				{
					"attributes":{
						"_interpolation":2,
						"POSITION":1
					},
					"indices":0
				}
			],
			"name":"wireMesh"
		}
	],
	"scenes":[
		{
			"nodes":[0
			]
		}
	],
	"scene":0
}
